<?xml version="1.0" encoding="UTF-8"?>
<svg version="1.1" viewBox="0 0 1600 1600" width="1600" height="1600" xmlns="http://www.w3.org/2000/svg">
<path transform="translate(505,300)" d="m0 0h24l31 1 14 3 12 6 8 7 7 10 5 12 36 146 17 67 14 55 2 10h177l126-1 3-7 18-65 19-69 10-37 1-7h-356l-4-2-5-16-7-29v-4h435l2 1-1 11-16 57-8 29-15 55-11 41-10 37-6 22-5 12-9 10-6 5-12 6-9 2-33 1v2l9 1 14 4 13 7 13 11 10 13 7 14 3 10 2 21-2 15-4 12-8 14-10 12-1 2h453l7 2v46l-2 2h-817l-1 5-3 1-27 3-13 4-4 3h-2l-6 12-3 15-1 17v62l1 322 3 14 4 8 5 5 8 4 13 3 12 1h18l16-5 5-4 4-10 1-7 1-38 1-295-7 4-13 10-10 7-4-1-1-5 8-8 10-8 16-13 1-1 1-48 11-10 8-7 9-9 5-8 4-14 5-1 2 2v67l26-11 18-6 22-5 8-1h24l15 2 18 6 11 7 10 9 1 3h2l8 13 5 11 4 14 2 12 1 11v18l-3 26-5 20-6 16-8 17-7 11-8 10-9 10-10 9-14 10-10 6-20 8-23 5-9 1h-28l-15-1 1 128 2 12 5 10 7 4 4 1h29l1 5-4 2-109 16-19 3-56-1h-50l-38 1h-25l-2-3 1-6 28-2 13-3 8-5 4-5 3-10 2-18v-38l-1-157h-250l1 198 2 15 4 11 8 7 7 3 11 2 25 2 2 5-2 4h-25l-45-1h-35l-43 1h-25l-2-1-1-5 2-3 26-2 13-3 9-5 4-6 3-9 2-14v-397l-2-13-4-10-4-5-10-5-13-3-23-2-2-6v-49l3-1h498l-9-11-6-8-6-12-3-11-1-7v-18l3-14 5-12 7-12 12-13 9-7 14-7 16-4h4v-2l-32-1-11-3-10-5-10-9-6-8-5-12-13-53-17-69-17-67-18-73-4-17h-43l-24-1-10-5-6-8-2-5v-13l5-10 7-6 9-3zm216 368-6 1 1 2 19 5 16 8 10 8 10 11 8 14 5 17 1 6v19l-4 17-8 15-9 11-3 3v2l28 1h75l28-1-2-4-11-14-7-15-3-12-1-14 2-17 6-17 7-11 8-10 11-9 16-8 19-5v-2l-5-1zm-390 189-2 5-23 2-16 4-9 6-5 6-4 16-1 9v176l248 1 3-1v-176l-3-19-5-10-9-7-7-3-11-2-22-2-2-5zm427 79-19 4-20 7-2 2v189l17 6 22 4h28l17-4 14-7 10-9 7-9 8-16 5-18 3-18 1-14v-29l-2-20-5-21-6-14-8-12-3-4h-2v-2l-10-7-8-4-11-3-6-1z" fill="#000001"/>
<path transform="translate(505,300)" d="m0 0h24l31 1 14 3 12 6 8 7 7 10 5 12 36 146 17 67 14 55 2 10h177l126-1 3-7 18-65 19-69 10-37 1-7h-356l-4-2-5-16-7-29v-4h435l2 1-1 11-16 57-8 29-15 55-11 41-10 37-6 22-5 12-9 10-6 5-12 6-9 2-33 1v2l9 1 14 4 13 7 13 11 10 13 7 14 3 10 2 21-2 15-4 12-8 14-10 12-3 1-104 1v-2l-4-2-11-14-7-15-3-12-1-14 2-17 6-17 7-11 9-11 11-9 16-8 15-4h4v-2h-216l-5 1 19 5 16 8 10 8 11 12 8 14 5 17 1 6v19l-4 17-8 15-9 11-4 4h-106l-11-12-7-11-5-14-2-11v-18l3-14 5-12 7-12 12-13 9-7 14-7 16-4h4v-2l-32-1-11-3-10-5-10-9-6-8-5-12-13-53-17-69-17-67-18-73-4-17h-43l-24-1-10-5-6-8-2-5v-13l5-10 7-6 9-3z" fill="#000001"/>
<path transform="translate(892,805)" d="m0 0 2 1 105-1v2h453l7 2v32l-2 2h-1301l-2 1v-36l3-1h496l2-1h106l28 1h103z" fill="#181AAC"/>
<path transform="translate(1284,909)" d="m0 0 12 1 9 4 8 7 5 9 3 9 1 5v58l-2 68v22l2 18 4 15 6 10 9 7 11 3h8l13-3 8-5 9-7 9-11 8-12 9-19 10-30 7-31 5-35 2-24 2-50 5-5 9-3h23l7 3 1 2-1 101-1 187-1 24-4 26-8 24-10 19-8 11-12 13-13 10-15 8-16 6-15 3-8 1h-27l-15-2-15-4-12-5-12-7-9-8-5-8-2-7v-14l3-8 5-6 6-3 4-1h7l9 3 6 5 10 13 6 11 8 10v2h2l5 5 5 4 12 5 15 2 16-1 13-5 11-9 7-11 4-9 4-13 3-18 1-14v-208l-8 29-11 28-9 17-12 18-12 13-14 11-12 6-15 4-7 1h-13l-14-3-12-6-8-7-9-14-5-15-2-10-1-11v-36l2-72v-43l-4-13-5-5-4-2h-8l-7 3-9 6-4 4h-2v2l-13 13h-5l-1-5 9-12 11-12 12-12 14-9 10-4z" fill="#191BAF"/>
<path transform="translate(711,865)" d="m0 0 5 1 1 1v67l26-11 18-6 22-5 8-1h24l15 2 18 6 11 7 10 9 1 3h2l8 13 5 11 4 14 2 12 1 11v18l-3 26-5 20-6 16-8 17-7 11-8 10-9 10-10 9-14 10-10 6-20 8-23 5-9 1h-28l-15-1 1 128 2 12 5 10 7 4 4 1h29l1 5-4 2-109 16-15 2-1-8 15-3 9-4 5-5 3-8 1-7 1-38 1-295-7 4-13 10-10 7-4-1-1-5 8-8 10-8 16-13 1-1 1-48 11-10 8-7 9-9 5-8 4-14zm47 71-19 4-20 7-2 2v189l17 6 22 4h28l17-4 14-7 10-9 7-9 8-16 5-18 3-18 1-14v-29l-2-20-5-21-6-14-8-12-3-4h-2v-2l-10-7-8-4-11-3-6-1z" fill="#191BAF"/>
<path transform="translate(1160,901)" d="m0 0h5l1 1v218l3 14 4 6 4 3h12l10-5 9-8h2v-2l7-6 5-5 5 1-1 5-6 8-11 13-10 10-10 8-14 7-8 2h-14l-10-3-7-4-8-11-4-11-2-12v-80h-2l-1 6-9 21-8 16-7 12-12 17-9 11-14 14-8 7-14 9-13 6-15 4-8 1h-13l-16-4-10-6-9-8-6-10-4-8-4-20v-32l3-21 5-19 8-22 12-24 11-18 12-16 18-20 15-13 14-10 15-8 14-5 9-2 9-1h13l15 2 15 5 11 6 4 3 4-2 6-7zm-100 31-15 4-13 7-11 9-7 7-12 17-10 21-6 19-3 17-2 20v26l3 24 6 16 6 8 8 7 8 3 7 1h8l13-3 16-8 10-8v-2l3-1 7-8 10-13 9-15 8-16 8-20 6-22 3-18v-29l-4-15-7-11-5-5-7-6-12-5-6-1z" fill="#191BAF"/>
<path transform="translate(784,453)" d="m0 0h18l8 2 9 4 10 7 2 2 5-1 8-6 12-6 8-2h19l13 4 11 6 6 5 6 8 6 12 2 9v19l-3 13-5 10-10 14-9 9-5 6-8 7-12 11-11 9-16 13-11 7-5 1-10-5-11-9-16-13-14-12-7-7-6-5-7-8-10-12-7-12-4-13-1-7v-15l4-14 7-12 8-8 14-8z" fill="#2122DC"/>
<path transform="translate(156,842)" d="m0 0h1302v12h-322l-29 1-19-1h-24l-14 1h-23l-9-1-15 1h-150l-13-1h-21l-8 1h-49l-16-1-28 1-2 1h-10v-1h-31l-48-1h-464l-4-1-1 2-3-1-1-10z" fill="#080936"/>
<path transform="translate(892,805)" d="m0 0 2 1 105-1v2h453l7 2v20h-1l-1-16-9 1h-682l-1 1h-13l-2-1h-108l-8 1-9-1h-121l-8 1h-198l-34-1h-107l-1 2-2 1v-9l3-1h496l2-1h106l28 1h103z" fill="#2223DD"/>
<path transform="translate(155,848)" d="m0 0 4 1h1299v5h-322l-29 1-19-1h-24l-14 1h-23l-9-1-15 1h-150l-13-1h-21l-8 1h-49l-16-1-28 1-2 1h-10v-1h-31l-48-1h-464l-4-1-1 2-3-1z" fill="#06061C"/>
<path transform="translate(707,719)" d="m0 0h9l9 2 9 6 8 9 4 12v12l-4 11-9 10-8 5-6 2h-15l-12-5-8-7-6-12-1-3v-15l4-10 7-8 6-5 7-3z" fill="#191BAD"/>
<path transform="translate(939,721)" d="m0 0h14l10 4 8 7 4 5 3 7 1 5v11l-4 10-4 6-11 8-7 2h-13l-11-4-9-8-5-10-1-3v-15l4-10h2l1-4 8-7z" fill="#191BAD"/>
<path transform="translate(997,805)" d="m0 0 1 2 15 1v1h-131v-1h12v-2z" fill="#191BAD"/>
<path transform="translate(655,806)" d="m0 0h105l-1 3h-119v-1l13-1z" fill="#191BAD"/>
<path transform="translate(1018,938)" d="m0 0 2 1-26 26v-3l7-7 7-8z" fill="#1E1FCA"/>
</svg>
